<?xml version="1.0" encoding="UTF-8"?><svg id="uuid-0cb12160-0513-4e5b-b4ad-06ca37237635" xmlns="http://www.w3.org/2000/svg" viewBox="0 0 1050.5 75"><g id="uuid-44a10bc1-3aa9-4c4f-bff8-c8839717e135"><path d="m.24,63.16V10.68h4.82l15.26,45.29h.36l-.36-18.58V10.68h3.67v52.49h-4.9L3.99,18.02h-.43l.36,17.86v27.29H.24Z" style="stroke-width:0px;"/><path d="m34.44,63.16V10.68h17.93v3.31h-14.18v20.59h12.17v3.24h-12.17v22.03h14.18v3.31h-17.93Z" style="stroke-width:0px;"/><path d="m64.68,63.16l-8.28-52.49h3.67l4.97,31.54,2.16,16.99h.22l7.63-48.53h4.9l7.63,48.6h.22l2.38-17.86,4.61-30.74h3.82l-8.35,52.49h-5.18l-7.42-46.87h-.36l-7.42,46.87h-5.18Z" style="stroke-width:0px;"/><path d="m115.66,63.74c-3.02,0-5.42-.7-7.2-2.09-1.78-1.39-3.07-3.36-3.89-5.9-.82-2.54-1.25-5.5-1.3-8.86h3.67c0,3.41.36,6.11,1.08,8.1.72,1.99,1.72,3.41,2.99,4.25,1.27.84,2.77,1.26,4.5,1.26,2.74,0,4.69-.91,5.87-2.74,1.18-1.82,1.76-4.2,1.76-7.13,0-2.4-.38-4.34-1.15-5.83-.77-1.49-1.81-2.74-3.13-3.74-1.32-1.01-2.82-1.97-4.5-2.88-1.63-.91-3.22-1.93-4.75-3.06-1.54-1.13-2.81-2.66-3.82-4.61-1.01-1.94-1.51-4.57-1.51-7.88,0-4.22,1-7.37,2.99-9.43,1.99-2.06,4.57-3.1,7.74-3.1,4.22,0,7.18,1.36,8.86,4.07,1.68,2.71,2.54,6.4,2.59,11.05h-3.67c-.05-3.17-.4-5.6-1.04-7.31-.65-1.7-1.56-2.89-2.74-3.56-1.18-.67-2.53-1.01-4.07-1.01-2.45,0-4.2.85-5.26,2.56-1.06,1.7-1.58,3.95-1.58,6.73,0,2.54.42,4.6,1.26,6.16.84,1.56,1.93,2.82,3.28,3.78,1.34.96,2.81,1.87,4.39,2.74,1.73.96,3.36,2.03,4.9,3.2,1.54,1.18,2.77,2.71,3.71,4.61.94,1.9,1.4,4.38,1.4,7.45,0,4.46-1.03,7.78-3.1,9.94-2.06,2.16-4.82,3.24-8.28,3.24Z" style="stroke-width:0px;"/><path d="m149.64,63.16l11.23-52.49h5.04l11.23,52.49h-3.82l-2.81-13.9h-14.26l-2.88,13.9h-3.74Zm7.27-16.92h12.96l-4.25-21.74-2.02-9.94h-.36l-1.94,10.01-4.39,21.67Z" style="stroke-width:0px;"/><path d="m184.06,63.16V10.68h3.82v52.49h-3.82Z" style="stroke-width:0px;"/><path d="m252.53,63.16V10.68h9.29c4.37,0,7.57,1.39,9.61,4.18,2.04,2.78,3.06,6.53,3.06,11.23s-1.01,8.52-3.02,11.3c-2.02,2.78-5.23,4.18-9.65,4.18h-5.54v21.6h-3.74Zm9.07-49.18h-5.33v24.19h5.33c2.78,0,4.98-.92,6.59-2.77,1.61-1.85,2.41-4.96,2.41-9.32s-.82-7.48-2.45-9.32c-1.63-1.85-3.82-2.77-6.55-2.77Z" style="stroke-width:0px;"/><path d="m282.84,63.16V10.68h10.22c4.03,0,7.1,1.13,9.22,3.38,2.11,2.26,3.17,5.86,3.17,10.8,0,2.98-.5,5.57-1.51,7.78s-2.5,3.74-4.46,4.61v.5c1.73.48,3.01,1.55,3.85,3.2.84,1.66,1.26,4.12,1.26,7.38v9.58c0,.86.04,1.73.11,2.59.07.86.2,1.75.4,2.66h-3.67c-.29-.86-.46-1.74-.5-2.63-.05-.89-.07-1.84-.07-2.84v-9.36c0-3.41-.5-5.72-1.51-6.95-1.01-1.22-2.38-1.84-4.1-1.84h-8.64v23.62h-3.74Zm3.74-26.86h6.7c2.98,0,5.1-1.06,6.37-3.17,1.27-2.11,1.91-4.8,1.91-8.06s-.61-6.05-1.84-8.06c-1.22-2.02-3.54-3.02-6.95-3.02h-6.19v22.32Z" style="stroke-width:0px;"/><path d="m324.09,63.88c-1.92,0-3.66-.42-5.22-1.26-1.56-.84-2.88-2.27-3.96-4.28-1.08-2.02-1.91-4.76-2.48-8.24s-.86-7.86-.86-13.14.29-9.66.86-13.14c.58-3.48,1.4-6.23,2.48-8.24s2.4-3.44,3.96-4.28c1.56-.84,3.3-1.26,5.22-1.26s3.73.42,5.29,1.26c1.56.84,2.89,2.28,4,4.32,1.1,2.04,1.94,4.8,2.52,8.28.58,3.48.86,7.84.86,13.07s-.29,9.65-.86,13.1c-.58,3.46-1.42,6.2-2.52,8.24-1.1,2.04-2.44,3.48-4,4.32-1.56.84-3.32,1.26-5.29,1.26Zm0-3.38c2.35,0,4.15-.98,5.4-2.95,1.25-1.97,2.12-4.72,2.63-8.24.5-3.53.76-7.64.76-12.35s-.25-8.96-.76-12.49c-.5-3.53-1.38-6.25-2.63-8.17-1.25-1.92-3.05-2.88-5.4-2.88s-4.08.97-5.33,2.92c-1.25,1.94-2.11,4.68-2.59,8.21-.48,3.53-.72,7.67-.72,12.42s.25,8.96.76,12.49c.5,3.53,1.38,6.25,2.63,8.17,1.25,1.92,3,2.88,5.26,2.88Z" style="stroke-width:0px;"/><path d="m345.41,63.16V10.68h6.7l7.78,44.5h.5l7.85-44.5h6.84v52.49h-3.74v-27.22l.22-20.74h-.5l-8.5,47.95h-4.82l-8.42-47.95h-.43l.22,20.74v27.22h-3.67Z" style="stroke-width:0px;"/><path d="m385.51,63.16V10.68h9.29c4.37,0,7.57,1.39,9.61,4.18,2.04,2.78,3.06,6.53,3.06,11.23s-1.01,8.52-3.02,11.3c-2.02,2.78-5.23,4.18-9.65,4.18h-5.54v21.6h-3.74Zm9.07-49.18h-5.33v24.19h5.33c2.78,0,4.98-.92,6.59-2.77,1.61-1.85,2.41-4.96,2.41-9.32s-.82-7.48-2.45-9.32c-1.63-1.85-3.82-2.77-6.55-2.77Z" style="stroke-width:0px;"/><path d="m422.23,63.16V14.13h-9.65v-3.46h23.18v3.46h-9.72v49.03h-3.82Z" style="stroke-width:0px;"/><path d="m461.47,63.16V10.68h17.93v3.31h-14.18v20.59h12.17v3.24h-12.17v22.03h14.18v3.31h-17.93Z" style="stroke-width:0px;"/><path d="m486.96,63.16V10.68h4.82l15.26,45.29h.36l-.36-18.58V10.68h3.67v52.49h-4.9l-15.12-45.14h-.43l.36,17.86v27.29h-3.67Z" style="stroke-width:0px;"/><path d="m531.96,63.88c-2.64,0-4.9-.8-6.77-2.41-1.87-1.61-3.31-4.37-4.32-8.28-1.01-3.91-1.51-9.35-1.51-16.31,0-5.42.31-9.88.94-13.36.62-3.48,1.49-6.2,2.59-8.17,1.1-1.97,2.42-3.35,3.96-4.14,1.54-.79,3.24-1.19,5.11-1.19,3.02-.05,5.39.66,7.09,2.12,1.7,1.46,2.94,3.54,3.71,6.23.77,2.69,1.25,5.83,1.44,9.43h-3.74c-.34-5.23-1.15-8.94-2.45-11.12-1.3-2.18-3.31-3.28-6.05-3.28-2.3,0-4.09.95-5.36,2.84-1.27,1.9-2.15,4.61-2.63,8.14-.48,3.53-.72,7.69-.72,12.49s.24,9.04.72,12.56,1.36,6.25,2.63,8.17c1.27,1.92,3.04,2.88,5.29,2.88,3.07,0,5.26-1.37,6.55-4.1,1.29-2.74,1.94-6.65,1.94-11.74v-5.47h-9.21v-3.24h13.03v8.78c0,4.99-.55,8.87-1.66,11.63-1.11,2.76-2.58,4.71-4.43,5.83s-3.9,1.69-6.16,1.69Z" style="stroke-width:0px;"/><path d="m552.84,63.16V10.68h3.81v52.49h-3.81Z" style="stroke-width:0px;"/><path d="m567.09,63.16V10.68h4.82l15.26,45.29h.36l-.36-18.58V10.68h3.67v52.49h-4.9l-15.12-45.14h-.43l.36,17.86v27.29h-3.67Z" style="stroke-width:0px;"/><path d="m601.29,63.16V10.68h17.93v3.31h-14.18v20.59h12.17v3.24h-12.17v22.03h14.18v3.31h-17.93Z" style="stroke-width:0px;"/><path d="m626.78,63.16V10.68h17.93v3.31h-14.18v20.59h12.17v3.24h-12.17v22.03h14.18v3.31h-17.93Z" style="stroke-width:0px;"/><path d="m652.27,63.16V10.68h10.22c4.03,0,7.1,1.13,9.21,3.38,2.11,2.26,3.17,5.86,3.17,10.8,0,2.98-.5,5.57-1.51,7.78s-2.5,3.74-4.46,4.61v.5c1.73.48,3.01,1.55,3.85,3.2s1.26,4.12,1.26,7.38v9.58c0,.86.04,1.73.11,2.59.07.86.21,1.75.4,2.66h-3.67c-.29-.86-.46-1.74-.5-2.63-.05-.89-.07-1.84-.07-2.84v-9.36c0-3.41-.5-5.72-1.51-6.95-1.01-1.22-2.38-1.84-4.1-1.84h-8.64v23.62h-3.74Zm3.74-26.86h6.7c2.98,0,5.1-1.06,6.37-3.17,1.27-2.11,1.91-4.8,1.91-8.06s-.61-6.05-1.84-8.06c-1.22-2.02-3.54-3.02-6.95-3.02h-6.19v22.32Z" style="stroke-width:0px;"/><path d="m682.87,63.16V10.68h3.82v52.49h-3.82Z" style="stroke-width:0px;"/><path d="m697.12,63.16V10.68h4.82l15.27,45.29h.36l-.36-18.58V10.68h3.67v52.49h-4.9l-15.12-45.14h-.43l.36,17.86v27.29h-3.67Z" style="stroke-width:0px;"/><path d="m742.12,63.88c-2.64,0-4.9-.8-6.77-2.41-1.87-1.61-3.31-4.37-4.32-8.28-1.01-3.91-1.51-9.35-1.51-16.31,0-5.42.31-9.88.94-13.36.62-3.48,1.49-6.2,2.59-8.17,1.1-1.97,2.42-3.35,3.96-4.14,1.54-.79,3.24-1.19,5.11-1.19,3.02-.05,5.39.66,7.09,2.12,1.7,1.46,2.94,3.54,3.71,6.23.77,2.69,1.25,5.83,1.44,9.43h-3.74c-.34-5.23-1.15-8.94-2.45-11.12-1.29-2.18-3.31-3.28-6.05-3.28-2.3,0-4.09.95-5.37,2.84-1.27,1.9-2.15,4.61-2.63,8.14-.48,3.53-.72,7.69-.72,12.49s.24,9.04.72,12.56c.48,3.53,1.36,6.25,2.63,8.17,1.27,1.92,3.04,2.88,5.29,2.88,3.07,0,5.26-1.37,6.55-4.1,1.3-2.74,1.95-6.65,1.95-11.74v-5.47h-9.22v-3.24h13.03v8.78c0,4.99-.55,8.87-1.65,11.63-1.11,2.76-2.58,4.71-4.43,5.83s-3.9,1.69-6.15,1.69Z" style="stroke-width:0px;"/><path d="m824.13,63.16V14.13h-9.65v-3.46h23.19v3.46h-9.72v49.03h-3.82Z" style="stroke-width:0px;"/><path d="m854.01,63.88c-1.92,0-3.66-.42-5.22-1.26-1.56-.84-2.88-2.27-3.96-4.28-1.08-2.02-1.91-4.76-2.48-8.24s-.86-7.86-.86-13.14.29-9.66.86-13.14c.58-3.48,1.4-6.23,2.48-8.24s2.4-3.44,3.96-4.28c1.56-.84,3.3-1.26,5.22-1.26s3.73.42,5.29,1.26c1.56.84,2.89,2.28,4,4.32,1.1,2.04,1.94,4.8,2.52,8.28s.86,7.84.86,13.07-.29,9.65-.86,13.1-1.42,6.2-2.52,8.24c-1.11,2.04-2.44,3.48-4,4.32-1.56.84-3.32,1.26-5.29,1.26Zm0-3.38c2.35,0,4.15-.98,5.4-2.95,1.25-1.97,2.12-4.72,2.63-8.24.5-3.53.76-7.64.76-12.35s-.25-8.96-.76-12.49c-.51-3.53-1.38-6.25-2.63-8.17-1.25-1.92-3.05-2.88-5.4-2.88s-4.08.97-5.33,2.92c-1.25,1.94-2.11,4.68-2.59,8.21-.48,3.53-.72,7.67-.72,12.42s.25,8.96.76,12.49,1.38,6.25,2.63,8.17c1.25,1.92,3,2.88,5.26,2.88Z" style="stroke-width:0px;"/><path d="m886.12,63.88c-1.92,0-3.66-.42-5.22-1.26-1.56-.84-2.88-2.27-3.96-4.28-1.08-2.02-1.91-4.76-2.48-8.24s-.87-7.86-.87-13.14.29-9.66.87-13.14c.58-3.48,1.4-6.23,2.48-8.24,1.08-2.02,2.4-3.44,3.96-4.28,1.56-.84,3.3-1.26,5.22-1.26s3.73.42,5.29,1.26c1.56.84,2.89,2.28,4,4.32,1.1,2.04,1.94,4.8,2.52,8.28s.87,7.84.87,13.07-.29,9.65-.87,13.1-1.42,6.2-2.52,8.24-2.44,3.48-4,4.32c-1.56.84-3.32,1.26-5.29,1.26Zm0-3.38c2.35,0,4.15-.98,5.4-2.95,1.25-1.97,2.12-4.72,2.63-8.24.5-3.53.76-7.64.76-12.35s-.25-8.96-.76-12.49c-.5-3.53-1.38-6.25-2.63-8.17-1.25-1.92-3.05-2.88-5.4-2.88s-4.08.97-5.33,2.92c-1.25,1.94-2.11,4.68-2.59,8.21-.48,3.53-.72,7.67-.72,12.42s.25,8.96.76,12.49,1.38,6.25,2.63,8.17c1.25,1.92,3,2.88,5.26,2.88Z" style="stroke-width:0px;"/><path d="m907.44,63.16V10.68h3.74v49.03h11.38v3.46h-15.12Z" style="stroke-width:0px;"/><path d="m944.73,63.16l11.23-52.49h5.04l11.23,52.49h-3.82l-2.81-13.9h-14.26l-2.88,13.9h-3.74Zm7.27-16.92h12.96l-4.25-21.74-2.02-9.94h-.36l-1.94,10.01-4.39,21.67Z" style="stroke-width:0px;"/><path d="m979.15,63.16V10.68h3.81v52.49h-3.81Z" style="stroke-width:0px;"/><rect width="1050.5" height="75" style="fill:none; stroke-width:0px;"/></g></svg>