<?xml version="1.0" encoding="UTF-8"?><svg id="uuid-0dabac14-41f4-4785-b047-35e7d48cb7e0" xmlns="http://www.w3.org/2000/svg" viewBox="0 0 591.5 73"><g id="uuid-4707d886-ada2-45ac-94fe-2c2006a2f0e3"><path d="m7.78,63V20.59H.86v-10.08h25.78v10.08h-7.2v42.41H7.78Z" style="stroke-width:0px;"/><path d="m31.46,63V10.51h11.66v20.95h6.55V10.51h11.81v52.49h-11.81v-21.6h-6.55v21.6h-11.66Z" style="stroke-width:0px;"/><path d="m68.04,63V10.51h22.97v10.01h-11.74v11.02h10.51v9.29h-10.51v12.17h11.74v10.01h-22.97Z" style="stroke-width:0px;"/><path d="m110.01,63V10.51h13.61c10.61,0,15.91,6.02,15.91,18.07s-5.3,18.07-15.91,18.07h-2.23v16.34h-11.38Zm13.25-42.48h-1.87v16.2h1.87c1.82,0,3.07-.71,3.74-2.12.67-1.42,1.01-3.47,1.01-6.16,0-3.02-.4-5.1-1.19-6.23-.79-1.13-1.98-1.69-3.56-1.69Z" style="stroke-width:0px;"/><path d="m144.65,63V10.51h13.82c3.17,0,5.95.47,8.35,1.4,2.4.94,4.26,2.5,5.58,4.68,1.32,2.18,1.98,5.17,1.98,8.96,0,3.36-.54,6.1-1.62,8.21-1.08,2.11-2.56,3.53-4.43,4.25v.5c1.97.34,3.34,1.5,4.1,3.49.77,1.99,1.15,4.36,1.15,7.09v8.57c0,1.1.04,2.08.11,2.92.07.84.2,1.65.4,2.41h-11.52c-.24-.72-.4-1.55-.47-2.48-.07-.94-.11-1.67-.11-2.2v-8.06c0-1.63-.18-3.05-.54-4.25-.36-1.2-1.19-1.8-2.48-1.8h-2.95v18.79h-11.38Zm11.38-27.72h1.87c1.97,0,3.3-.66,4-1.98.7-1.32,1.04-3.13,1.04-5.44,0-2.59-.4-4.46-1.19-5.62s-2.1-1.73-3.92-1.73h-1.8v14.76Z" style="stroke-width:0px;"/><path d="m194.33,63.65c-4.03,0-7.21-1.04-9.54-3.13-2.33-2.09-3.98-5.14-4.97-9.14-.98-4.01-1.48-8.89-1.48-14.65s.49-10.64,1.48-14.65c.98-4.01,2.64-7.06,4.97-9.14,2.33-2.09,5.51-3.13,9.54-3.13s7.2,1.04,9.5,3.13c2.3,2.09,3.95,5.14,4.93,9.14.98,4.01,1.48,8.89,1.48,14.65s-.49,10.64-1.48,14.65c-.98,4.01-2.63,7.06-4.93,9.14-2.3,2.09-5.47,3.13-9.5,3.13Zm0-9.94c1.87,0,3.08-1.43,3.64-4.28.55-2.86.83-7.09.83-12.71,0-6.1-.32-10.45-.97-13.07-.65-2.62-1.81-3.92-3.49-3.92-1.87,0-3.08,1.42-3.64,4.25-.55,2.83-.83,7.08-.83,12.74,0,6.1.31,10.45.94,13.07.62,2.62,1.8,3.92,3.53,3.92Z" style="stroke-width:0px;"/><path d="m215.64,63V10.51h15.84l4.03,31.46h.5l3.89-31.46h15.98v52.49h-10.8v-14.26l.22-23.9h-.5l-5.26,38.16h-7.56l-5.33-38.16h-.43l.22,23.9v14.26h-10.8Z" style="stroke-width:0px;"/><path d="m262.44,63V10.51h13.61c10.61,0,15.91,6.02,15.91,18.07s-5.3,18.07-15.91,18.07h-2.23v16.34h-11.38Zm13.25-42.48h-1.87v16.2h1.87c1.82,0,3.07-.71,3.74-2.12.67-1.42,1.01-3.47,1.01-6.16,0-3.02-.4-5.1-1.19-6.23-.79-1.13-1.98-1.69-3.56-1.69Z" style="stroke-width:0px;"/><path d="m301.18,63V20.59h-6.91v-10.08h25.78v10.08h-7.2v42.41h-11.66Z" style="stroke-width:0px;"/><path d="m338.61,63V10.51h15.84l4.03,31.46h.5l3.89-31.46h15.98v52.49h-10.8v-14.26l.22-23.9h-.5l-5.26,38.16h-7.56l-5.33-38.16h-.43l.22,23.9v14.26h-10.8Z" style="stroke-width:0px;"/><path d="m383.18,63l8.57-52.49h15.91l8.71,52.49h-11.09l-1.37-9.5h-8.28l-1.3,9.5h-11.16Zm13.39-18.43h6.34l-1.73-12.82-1.22-10.66h-.43l-1.15,10.73-1.8,12.74Z" style="stroke-width:0px;"/><path d="m434.81,63.72c-3.5,0-6.32-.72-8.46-2.16s-3.7-3.46-4.68-6.05c-.98-2.59-1.48-5.62-1.48-9.07h9.94c0,3.26.37,5.52,1.12,6.77.74,1.25,1.79,1.87,3.13,1.87s2.28-.48,2.81-1.44c.53-.96.79-2.26.79-3.89,0-1.54-.26-2.81-.79-3.82s-1.32-1.93-2.38-2.77c-1.06-.84-2.42-1.76-4.1-2.77-1.68-.96-3.29-2.11-4.82-3.46-1.54-1.34-2.8-3.05-3.78-5.11-.98-2.06-1.48-4.63-1.48-7.7,0-4.9,1.3-8.5,3.89-10.8,2.59-2.3,5.95-3.46,10.08-3.46,4.56,0,8.08,1.27,10.55,3.82,2.47,2.54,3.71,6.65,3.71,12.31h-10.08c.05-2.83-.23-4.81-.83-5.94-.6-1.13-1.55-1.69-2.84-1.69-1.2,0-2.05.44-2.56,1.33-.5.89-.76,2.1-.76,3.64s.23,2.78.68,3.74c.46.96,1.18,1.81,2.16,2.56.98.74,2.22,1.57,3.71,2.48,2.02,1.2,3.85,2.52,5.51,3.96,1.66,1.44,2.99,3.18,4,5.22,1.01,2.04,1.51,4.55,1.51,7.52,0,5.04-1.3,8.78-3.89,11.23-2.59,2.45-6.14,3.67-10.66,3.67Z" style="stroke-width:0px;"/><path d="m459.29,63V20.59h-6.91v-10.08h25.78v10.08h-7.2v42.41h-11.66Z" style="stroke-width:0px;"/><path d="m482.97,63V10.51h22.97v10.01h-11.74v11.02h10.51v9.29h-10.51v12.17h11.74v10.01h-22.97Z" style="stroke-width:0px;"/><path d="m511.41,63V10.51h13.82c3.17,0,5.95.47,8.35,1.4,2.4.94,4.26,2.5,5.58,4.68,1.32,2.18,1.98,5.17,1.98,8.96,0,3.36-.54,6.1-1.62,8.21-1.08,2.11-2.56,3.53-4.43,4.25v.5c1.97.34,3.33,1.5,4.1,3.49.77,1.99,1.15,4.36,1.15,7.09v8.57c0,1.1.04,2.08.11,2.92.07.84.2,1.65.4,2.41h-11.52c-.24-.72-.4-1.55-.47-2.48s-.11-1.67-.11-2.2v-8.06c0-1.63-.18-3.05-.54-4.25-.36-1.2-1.19-1.8-2.48-1.8h-2.95v18.79h-11.38Zm11.38-27.72h1.87c1.97,0,3.3-.66,4-1.98.7-1.32,1.04-3.13,1.04-5.44,0-2.59-.4-4.46-1.19-5.62s-2.1-1.73-3.92-1.73h-1.8v14.76Z" style="stroke-width:0px;"/><circle cx="566.5" cy="37.5" r="8.5" style="stroke-width:0px;"/><rect width="591.5" height="73" style="fill:none; stroke-width:0px;"/></g></svg>